<mxfile host="app.diagrams.net" modified="2023-11-02T02:20:44.805Z" agent="Mozilla/5.0 (Windows NT 10.0; Win64; x64) AppleWebKit/537.36 (KHTML, like Gecko) Chrome/118.0.0.0 Safari/537.36 Edg/118.0.2088.76" etag="q7bFrkElxj6_RGxrKoN9" version="22.0.8" type="github">
  <diagram id="w0qpV2vSeM4WsdXuYDvo" name="페이지-2">
    <mxGraphModel dx="2065" dy="2383" grid="1" gridSize="10" guides="1" tooltips="1" connect="1" arrows="1" fold="1" page="1" pageScale="1" pageWidth="827" pageHeight="1169" math="0" shadow="0">
      <root>
        <mxCell id="0" />
        <mxCell id="1" parent="0" />
        <mxCell id="iUZAVGl8YqMpMWCNluIf-1" value="Actor" style="shape=umlActor;verticalLabelPosition=bottom;verticalAlign=top;html=1;outlineConnect=0;" parent="1" vertex="1">
          <mxGeometry x="50" y="1630" width="30" height="60" as="geometry" />
        </mxCell>
        <mxCell id="iUZAVGl8YqMpMWCNluIf-4" value="비상상황" style="text;html=1;align=center;verticalAlign=middle;resizable=0;points=[];autosize=1;strokeColor=none;fillColor=none;" parent="1" vertex="1">
          <mxGeometry x="20" y="1580" width="70" height="30" as="geometry" />
        </mxCell>
        <mxCell id="BI4sslR2PnjQIPCocXP0-3" value="개발자" style="text;html=1;align=center;verticalAlign=middle;resizable=0;points=[];autosize=1;strokeColor=none;fillColor=none;" parent="1" vertex="1">
          <mxGeometry x="40" y="1730" width="60" height="30" as="geometry" />
        </mxCell>
        <mxCell id="BI4sslR2PnjQIPCocXP0-4" value="Actor" style="shape=umlActor;verticalLabelPosition=bottom;verticalAlign=top;html=1;outlineConnect=0;" parent="1" vertex="1">
          <mxGeometry x="54" y="-110" width="30" height="60" as="geometry" />
        </mxCell>
        <mxCell id="BI4sslR2PnjQIPCocXP0-5" value="호출" style="text;html=1;align=center;verticalAlign=middle;resizable=0;points=[];autosize=1;strokeColor=none;fillColor=none;" parent="1" vertex="1">
          <mxGeometry x="34" y="-160" width="50" height="30" as="geometry" />
        </mxCell>
        <mxCell id="BI4sslR2PnjQIPCocXP0-6" value="개발자" style="text;html=1;align=center;verticalAlign=middle;resizable=0;points=[];autosize=1;strokeColor=none;fillColor=none;" parent="1" vertex="1">
          <mxGeometry x="24" y="-22" width="60" height="30" as="geometry" />
        </mxCell>
        <mxCell id="BI4sslR2PnjQIPCocXP0-7" value="Actor" style="shape=umlActor;verticalLabelPosition=bottom;verticalAlign=top;html=1;outlineConnect=0;" parent="1" vertex="1">
          <mxGeometry x="64" y="490" width="30" height="60" as="geometry" />
        </mxCell>
        <mxCell id="BI4sslR2PnjQIPCocXP0-8" value="층 선택" style="text;html=1;align=center;verticalAlign=middle;resizable=0;points=[];autosize=1;strokeColor=none;fillColor=none;" parent="1" vertex="1">
          <mxGeometry x="39" y="440" width="60" height="30" as="geometry" />
        </mxCell>
        <mxCell id="BI4sslR2PnjQIPCocXP0-9" value="개발자" style="text;html=1;align=center;verticalAlign=middle;resizable=0;points=[];autosize=1;strokeColor=none;fillColor=none;" parent="1" vertex="1">
          <mxGeometry x="34" y="578" width="60" height="30" as="geometry" />
        </mxCell>
        <mxCell id="BI4sslR2PnjQIPCocXP0-19" value="Actor" style="shape=umlActor;verticalLabelPosition=bottom;verticalAlign=top;html=1;outlineConnect=0;" parent="1" vertex="1">
          <mxGeometry x="80" y="1150" width="30" height="60" as="geometry" />
        </mxCell>
        <mxCell id="BI4sslR2PnjQIPCocXP0-20" value="자동 문개폐" style="text;html=1;align=center;verticalAlign=middle;resizable=0;points=[];autosize=1;strokeColor=none;fillColor=none;" parent="1" vertex="1">
          <mxGeometry x="40" y="1100" width="90" height="30" as="geometry" />
        </mxCell>
        <mxCell id="BI4sslR2PnjQIPCocXP0-21" value="개발자" style="text;html=1;align=center;verticalAlign=middle;resizable=0;points=[];autosize=1;strokeColor=none;fillColor=none;" parent="1" vertex="1">
          <mxGeometry x="50" y="1238" width="60" height="30" as="geometry" />
        </mxCell>
        <mxCell id="BI4sslR2PnjQIPCocXP0-22" value="엘레베이터&amp;nbsp;&lt;br&gt;호출버튼을 누른다" style="ellipse;whiteSpace=wrap;html=1;" parent="1" vertex="1">
          <mxGeometry x="129" y="-120" width="120" height="80" as="geometry" />
        </mxCell>
        <mxCell id="BI4sslR2PnjQIPCocXP0-23" value="" style="endArrow=classic;html=1;rounded=0;exitX=0.5;exitY=0.5;exitDx=0;exitDy=0;exitPerimeter=0;entryX=0;entryY=0.5;entryDx=0;entryDy=0;" parent="1" source="BI4sslR2PnjQIPCocXP0-4" target="BI4sslR2PnjQIPCocXP0-22" edge="1">
          <mxGeometry width="50" height="50" relative="1" as="geometry">
            <mxPoint x="389" y="240" as="sourcePoint" />
            <mxPoint x="439" y="190" as="targetPoint" />
          </mxGeometry>
        </mxCell>
        <mxCell id="BI4sslR2PnjQIPCocXP0-24" value="엘레베이터가 호출된다" style="ellipse;whiteSpace=wrap;html=1;fillColor=#d5e8d4;strokeColor=#82b366;" parent="1" vertex="1">
          <mxGeometry x="309" y="-120" width="120" height="80" as="geometry" />
        </mxCell>
        <mxCell id="BI4sslR2PnjQIPCocXP0-25" value="" style="endArrow=classic;html=1;rounded=0;entryX=0;entryY=0.5;entryDx=0;entryDy=0;exitX=1;exitY=0.5;exitDx=0;exitDy=0;" parent="1" source="BI4sslR2PnjQIPCocXP0-22" target="BI4sslR2PnjQIPCocXP0-24" edge="1">
          <mxGeometry width="50" height="50" relative="1" as="geometry">
            <mxPoint x="249" y="-80" as="sourcePoint" />
            <mxPoint x="619" y="190" as="targetPoint" />
          </mxGeometry>
        </mxCell>
        <mxCell id="BI4sslR2PnjQIPCocXP0-26" value="엘레베이터가 호출된 층에 도착한다" style="ellipse;whiteSpace=wrap;html=1;fillColor=#d5e8d4;strokeColor=#82b366;" parent="1" vertex="1">
          <mxGeometry x="489" y="-120" width="120" height="80" as="geometry" />
        </mxCell>
        <mxCell id="BI4sslR2PnjQIPCocXP0-27" value="" style="endArrow=classic;html=1;rounded=0;entryX=0;entryY=0.5;entryDx=0;entryDy=0;exitX=1;exitY=0.5;exitDx=0;exitDy=0;" parent="1" source="BI4sslR2PnjQIPCocXP0-24" target="BI4sslR2PnjQIPCocXP0-26" edge="1">
          <mxGeometry width="50" height="50" relative="1" as="geometry">
            <mxPoint x="429" y="-80" as="sourcePoint" />
            <mxPoint x="799" y="190" as="targetPoint" />
          </mxGeometry>
        </mxCell>
        <mxCell id="BI4sslR2PnjQIPCocXP0-28" value="엘레베이터의&lt;br&gt;&amp;nbsp;문이 열린다." style="ellipse;whiteSpace=wrap;html=1;" parent="1" vertex="1">
          <mxGeometry x="669" y="-120" width="120" height="80" as="geometry" />
        </mxCell>
        <mxCell id="BI4sslR2PnjQIPCocXP0-29" value="" style="endArrow=classic;html=1;rounded=0;entryX=0;entryY=0.5;entryDx=0;entryDy=0;exitX=1;exitY=0.5;exitDx=0;exitDy=0;" parent="1" source="BI4sslR2PnjQIPCocXP0-26" target="BI4sslR2PnjQIPCocXP0-28" edge="1">
          <mxGeometry width="50" height="50" relative="1" as="geometry">
            <mxPoint x="609" y="-80" as="sourcePoint" />
            <mxPoint x="979" y="190" as="targetPoint" />
          </mxGeometry>
        </mxCell>
        <mxCell id="BI4sslR2PnjQIPCocXP0-34" value="엘레베이터 내부에서&amp;nbsp;&lt;br&gt;목적지 층을 선택한다" style="ellipse;whiteSpace=wrap;html=1;" parent="1" vertex="1">
          <mxGeometry x="139" y="480" width="120" height="80" as="geometry" />
        </mxCell>
        <mxCell id="BI4sslR2PnjQIPCocXP0-35" value="" style="endArrow=classic;html=1;rounded=0;entryX=0;entryY=0.5;entryDx=0;entryDy=0;exitX=0.5;exitY=0.5;exitDx=0;exitDy=0;exitPerimeter=0;" parent="1" source="BI4sslR2PnjQIPCocXP0-7" target="BI4sslR2PnjQIPCocXP0-34" edge="1">
          <mxGeometry width="50" height="50" relative="1" as="geometry">
            <mxPoint x="79" y="520" as="sourcePoint" />
            <mxPoint x="449" y="790" as="targetPoint" />
          </mxGeometry>
        </mxCell>
        <mxCell id="BI4sslR2PnjQIPCocXP0-36" value="엘레베이터&amp;nbsp;&lt;br&gt;문이 열린다" style="ellipse;whiteSpace=wrap;html=1;" parent="1" vertex="1">
          <mxGeometry x="160" y="1140" width="120" height="80" as="geometry" />
        </mxCell>
        <mxCell id="BI4sslR2PnjQIPCocXP0-37" value="" style="endArrow=classic;html=1;rounded=0;exitX=0.5;exitY=0.5;exitDx=0;exitDy=0;exitPerimeter=0;entryX=0;entryY=0.5;entryDx=0;entryDy=0;" parent="1" source="BI4sslR2PnjQIPCocXP0-19" target="BI4sslR2PnjQIPCocXP0-36" edge="1">
          <mxGeometry width="50" height="50" relative="1" as="geometry">
            <mxPoint x="100" y="1180" as="sourcePoint" />
            <mxPoint x="470" y="1450" as="targetPoint" />
          </mxGeometry>
        </mxCell>
        <mxCell id="BI4sslR2PnjQIPCocXP0-38" value="비상상황임을 인지한다" style="ellipse;whiteSpace=wrap;html=1;container=1;" parent="1" vertex="1">
          <mxGeometry x="140" y="1620" width="120" height="80" as="geometry">
            <mxRectangle x="120" y="1210" width="160" height="30" as="alternateBounds" />
          </mxGeometry>
        </mxCell>
        <mxCell id="BI4sslR2PnjQIPCocXP0-39" value="" style="endArrow=classic;html=1;rounded=0;exitX=0.5;exitY=0.5;exitDx=0;exitDy=0;exitPerimeter=0;entryX=0;entryY=0.5;entryDx=0;entryDy=0;" parent="1" source="iUZAVGl8YqMpMWCNluIf-1" target="BI4sslR2PnjQIPCocXP0-38" edge="1">
          <mxGeometry width="50" height="50" relative="1" as="geometry">
            <mxPoint x="70" y="1660" as="sourcePoint" />
            <mxPoint x="440" y="1930" as="targetPoint" />
          </mxGeometry>
        </mxCell>
        <mxCell id="BI4sslR2PnjQIPCocXP0-53" value="엘레베이터가 운행한다" style="ellipse;whiteSpace=wrap;html=1;" parent="1" vertex="1">
          <mxGeometry x="328" y="480" width="120" height="80" as="geometry" />
        </mxCell>
        <mxCell id="BI4sslR2PnjQIPCocXP0-54" value="" style="endArrow=classic;html=1;rounded=0;entryX=0;entryY=0.5;entryDx=0;entryDy=0;" parent="1" source="BI4sslR2PnjQIPCocXP0-34" target="BI4sslR2PnjQIPCocXP0-53" edge="1">
          <mxGeometry width="50" height="50" relative="1" as="geometry">
            <mxPoint x="268" y="520" as="sourcePoint" />
            <mxPoint x="638" y="790" as="targetPoint" />
          </mxGeometry>
        </mxCell>
        <mxCell id="BI4sslR2PnjQIPCocXP0-55" value="엘레베이터가 목적지 층에 도착한다" style="ellipse;whiteSpace=wrap;html=1;" parent="1" vertex="1">
          <mxGeometry x="508" y="480" width="120" height="80" as="geometry" />
        </mxCell>
        <mxCell id="BI4sslR2PnjQIPCocXP0-56" value="" style="endArrow=classic;html=1;rounded=0;entryX=0;entryY=0.5;entryDx=0;entryDy=0;" parent="1" source="BI4sslR2PnjQIPCocXP0-53" target="BI4sslR2PnjQIPCocXP0-55" edge="1">
          <mxGeometry width="50" height="50" relative="1" as="geometry">
            <mxPoint x="449" y="520" as="sourcePoint" />
            <mxPoint x="818" y="790" as="targetPoint" />
          </mxGeometry>
        </mxCell>
        <mxCell id="BI4sslR2PnjQIPCocXP0-57" value="엘레베이터의&lt;br&gt;&amp;nbsp;문이 열린다." style="ellipse;whiteSpace=wrap;html=1;" parent="1" vertex="1">
          <mxGeometry x="689" y="480" width="119" height="80" as="geometry" />
        </mxCell>
        <mxCell id="BI4sslR2PnjQIPCocXP0-58" value="" style="endArrow=classic;html=1;rounded=0;exitX=1;exitY=0.5;exitDx=0;exitDy=0;" parent="1" source="BI4sslR2PnjQIPCocXP0-55" edge="1">
          <mxGeometry width="50" height="50" relative="1" as="geometry">
            <mxPoint x="628" y="530" as="sourcePoint" />
            <mxPoint x="679" y="520" as="targetPoint" />
          </mxGeometry>
        </mxCell>
        <mxCell id="BI4sslR2PnjQIPCocXP0-59" value="" style="endArrow=none;html=1;rounded=0;strokeWidth=5;" parent="1" edge="1">
          <mxGeometry width="50" height="50" relative="1" as="geometry">
            <mxPoint x="34" y="940" as="sourcePoint" />
            <mxPoint x="829" y="940" as="targetPoint" />
          </mxGeometry>
        </mxCell>
        <mxCell id="BI4sslR2PnjQIPCocXP0-60" value="" style="endArrow=none;html=1;rounded=0;strokeWidth=5;" parent="1" edge="1">
          <mxGeometry width="50" height="50" relative="1" as="geometry">
            <mxPoint x="30" y="280" as="sourcePoint" />
            <mxPoint x="840" y="280" as="targetPoint" />
          </mxGeometry>
        </mxCell>
        <mxCell id="BI4sslR2PnjQIPCocXP0-63" value="엘레베이터의&lt;br&gt;&amp;nbsp;문이 닫힌다." style="ellipse;whiteSpace=wrap;html=1;" parent="1" vertex="1">
          <mxGeometry x="430" y="1140" width="119" height="80" as="geometry" />
        </mxCell>
        <mxCell id="BI4sslR2PnjQIPCocXP0-64" value="" style="endArrow=classic;html=1;rounded=0;exitX=1.002;exitY=0.378;exitDx=0;exitDy=0;exitPerimeter=0;entryX=0.041;entryY=0.367;entryDx=0;entryDy=0;entryPerimeter=0;" parent="1" source="BI4sslR2PnjQIPCocXP0-36" target="BI4sslR2PnjQIPCocXP0-63" edge="1">
          <mxGeometry width="50" height="50" relative="1" as="geometry">
            <mxPoint x="459" y="1180" as="sourcePoint" />
            <mxPoint x="510.5" y="1160" as="targetPoint" />
          </mxGeometry>
        </mxCell>
        <mxCell id="BI4sslR2PnjQIPCocXP0-67" value="&amp;lt;&amp;lt;include&amp;gt;&amp;gt;" style="html=1;verticalAlign=bottom;labelBackgroundColor=none;endArrow=open;endFill=0;dashed=1;rounded=0;entryX=0.5;entryY=0;entryDx=0;entryDy=0;" parent="1" source="BI4sslR2PnjQIPCocXP0-63" target="BI4sslR2PnjQIPCocXP0-68" edge="1">
          <mxGeometry width="160" relative="1" as="geometry">
            <mxPoint x="52" y="1247" as="sourcePoint" />
            <mxPoint x="150" y="1270" as="targetPoint" />
          </mxGeometry>
        </mxCell>
        <mxCell id="BI4sslR2PnjQIPCocXP0-68" value="엘레베이터 안의 무게가 1200kg 이상일 경우 엘레베이터 문이 닫히지 않는다." style="ellipse;whiteSpace=wrap;html=1;" parent="1" vertex="1">
          <mxGeometry x="338" y="1260" width="170" height="80" as="geometry" />
        </mxCell>
        <mxCell id="BI4sslR2PnjQIPCocXP0-69" value="" style="endArrow=none;html=1;rounded=0;strokeWidth=5;" parent="1" edge="1">
          <mxGeometry width="50" height="50" relative="1" as="geometry">
            <mxPoint x="16" y="1500" as="sourcePoint" />
            <mxPoint x="811" y="1500" as="targetPoint" />
          </mxGeometry>
        </mxCell>
        <mxCell id="BI4sslR2PnjQIPCocXP0-77" value="" style="endArrow=classic;html=1;rounded=0;entryX=0;entryY=0.5;entryDx=0;entryDy=0;" parent="1" source="BI4sslR2PnjQIPCocXP0-76" target="Eb4IQH0eCKcG7H8r5-bc-6" edge="1">
          <mxGeometry width="50" height="50" relative="1" as="geometry">
            <mxPoint x="245" y="1660" as="sourcePoint" />
            <mxPoint x="620" y="1930" as="targetPoint" />
            <Array as="points">
              <mxPoint x="410" y="1660" />
            </Array>
          </mxGeometry>
        </mxCell>
        <mxCell id="Eb4IQH0eCKcG7H8r5-bc-6" value="관리자가 비상호출 취소를 누른다" style="ellipse;whiteSpace=wrap;html=1;" parent="1" vertex="1">
          <mxGeometry x="520" y="1620" width="170" height="80" as="geometry" />
        </mxCell>
        <mxCell id="dQ5gDQTMDjGnMP2RlBHO-3" value="&amp;lt;&amp;lt;include&amp;gt;&amp;gt;" style="html=1;verticalAlign=bottom;labelBackgroundColor=none;endArrow=open;endFill=0;dashed=1;rounded=0;exitX=0.924;exitY=0.75;exitDx=0;exitDy=0;entryX=0;entryY=0;entryDx=0;entryDy=0;exitPerimeter=0;" parent="1" source="BI4sslR2PnjQIPCocXP0-63" target="dQ5gDQTMDjGnMP2RlBHO-4" edge="1">
          <mxGeometry width="160" relative="1" as="geometry">
            <mxPoint x="662" y="1150" as="sourcePoint" />
            <mxPoint x="819" y="1195" as="targetPoint" />
            <Array as="points" />
          </mxGeometry>
        </mxCell>
        <mxCell id="dQ5gDQTMDjGnMP2RlBHO-4" value="문 닫힘 방지 센서에 장애물이 인식되면 문이 닫히지 않는다" style="ellipse;whiteSpace=wrap;html=1;" parent="1" vertex="1">
          <mxGeometry x="560" y="1253" width="130" height="80" as="geometry" />
        </mxCell>
        <mxCell id="dQ5gDQTMDjGnMP2RlBHO-5" value="&amp;lt;&amp;lt;extend&amp;gt;&amp;gt;" style="html=1;verticalAlign=bottom;labelBackgroundColor=none;endArrow=open;endFill=0;dashed=1;rounded=0;exitX=0;exitY=1;exitDx=0;exitDy=0;entryX=0.5;entryY=0;entryDx=0;entryDy=0;" parent="1" source="dQ5gDQTMDjGnMP2RlBHO-6" target="BI4sslR2PnjQIPCocXP0-26" edge="1">
          <mxGeometry x="-0.0034" width="160" relative="1" as="geometry">
            <mxPoint x="657" y="21" as="sourcePoint" />
            <mxPoint x="549" y="-250" as="targetPoint" />
            <mxPoint as="offset" />
          </mxGeometry>
        </mxCell>
        <mxCell id="dQ5gDQTMDjGnMP2RlBHO-6" value="진행방향이 같을 경우&lt;br&gt;목적지를 경유한다" style="ellipse;whiteSpace=wrap;html=1;" parent="1" vertex="1">
          <mxGeometry x="577" y="-229" width="130" height="80" as="geometry" />
        </mxCell>
        <mxCell id="dQ5gDQTMDjGnMP2RlBHO-10" value="동일 층 중복호출은&amp;nbsp;&lt;br&gt;불가하다." style="ellipse;whiteSpace=wrap;html=1;" parent="1" vertex="1">
          <mxGeometry x="304" y="-250" width="130" height="80" as="geometry" />
        </mxCell>
        <mxCell id="dQ5gDQTMDjGnMP2RlBHO-12" value="&amp;lt;&amp;lt;include&amp;gt;&amp;gt;" style="html=1;verticalAlign=bottom;labelBackgroundColor=none;endArrow=open;endFill=0;dashed=1;rounded=0;exitX=0.255;exitY=0.06;exitDx=0;exitDy=0;exitPerimeter=0;" parent="1" source="BI4sslR2PnjQIPCocXP0-24" target="dQ5gDQTMDjGnMP2RlBHO-10" edge="1">
          <mxGeometry x="-0.0036" width="160" relative="1" as="geometry">
            <mxPoint x="199" y="260" as="sourcePoint" />
            <mxPoint x="154" y="335" as="targetPoint" />
            <Array as="points" />
            <mxPoint as="offset" />
          </mxGeometry>
        </mxCell>
        <mxCell id="GkXkpYNnUR_8SivHDrM--4" value="Actor" style="shape=umlActor;verticalLabelPosition=bottom;verticalAlign=top;html=1;outlineConnect=0;" parent="1" vertex="1">
          <mxGeometry x="885" y="530" width="30" height="60" as="geometry" />
        </mxCell>
        <mxCell id="GkXkpYNnUR_8SivHDrM--5" value="층 선택 취소" style="text;html=1;align=center;verticalAlign=middle;resizable=0;points=[];autosize=1;strokeColor=none;fillColor=none;" parent="1" vertex="1">
          <mxGeometry x="845" y="480" width="90" height="30" as="geometry" />
        </mxCell>
        <mxCell id="GkXkpYNnUR_8SivHDrM--6" value="개발자" style="text;html=1;align=center;verticalAlign=middle;resizable=0;points=[];autosize=1;strokeColor=none;fillColor=none;" parent="1" vertex="1">
          <mxGeometry x="855" y="618" width="60" height="30" as="geometry" />
        </mxCell>
        <mxCell id="GkXkpYNnUR_8SivHDrM--7" value="엘레베이터 내부에서&amp;nbsp;&lt;br&gt;목적지 층을 선택한다" style="ellipse;whiteSpace=wrap;html=1;" parent="1" vertex="1">
          <mxGeometry x="960" y="520" width="120" height="80" as="geometry" />
        </mxCell>
        <mxCell id="GkXkpYNnUR_8SivHDrM--8" value="" style="endArrow=classic;html=1;rounded=0;entryX=0;entryY=0.5;entryDx=0;entryDy=0;exitX=0.5;exitY=0.5;exitDx=0;exitDy=0;exitPerimeter=0;" parent="1" source="GkXkpYNnUR_8SivHDrM--4" target="GkXkpYNnUR_8SivHDrM--7" edge="1">
          <mxGeometry width="50" height="50" relative="1" as="geometry">
            <mxPoint x="900" y="560" as="sourcePoint" />
            <mxPoint x="1270" y="830" as="targetPoint" />
          </mxGeometry>
        </mxCell>
        <mxCell id="GkXkpYNnUR_8SivHDrM--13" value="층 선택이&amp;nbsp;&lt;br&gt;취소된다" style="ellipse;whiteSpace=wrap;html=1;" parent="1" vertex="1">
          <mxGeometry x="1620" y="450" width="120" height="80" as="geometry" />
        </mxCell>
        <mxCell id="GkXkpYNnUR_8SivHDrM--21" value="" style="endArrow=classic;html=1;rounded=0;entryX=0;entryY=0.5;entryDx=0;entryDy=0;" parent="1" source="GkXkpYNnUR_8SivHDrM--12" target="GkXkpYNnUR_8SivHDrM--13" edge="1">
          <mxGeometry width="50" height="50" relative="1" as="geometry">
            <mxPoint x="1470" y="570" as="sourcePoint" />
            <mxPoint x="1590" y="572" as="targetPoint" />
          </mxGeometry>
        </mxCell>
        <mxCell id="GkXkpYNnUR_8SivHDrM--23" value="Actor" style="shape=umlActor;verticalLabelPosition=bottom;verticalAlign=top;html=1;outlineConnect=0;" parent="1" vertex="1">
          <mxGeometry x="888" y="-90" width="30" height="60" as="geometry" />
        </mxCell>
        <mxCell id="GkXkpYNnUR_8SivHDrM--24" value="호출 취소" style="text;html=1;align=center;verticalAlign=middle;resizable=0;points=[];autosize=1;strokeColor=none;fillColor=none;" parent="1" vertex="1">
          <mxGeometry x="858" y="-140" width="70" height="30" as="geometry" />
        </mxCell>
        <mxCell id="GkXkpYNnUR_8SivHDrM--25" value="개발자" style="text;html=1;align=center;verticalAlign=middle;resizable=0;points=[];autosize=1;strokeColor=none;fillColor=none;" parent="1" vertex="1">
          <mxGeometry x="858" y="-2" width="60" height="30" as="geometry" />
        </mxCell>
        <mxCell id="GkXkpYNnUR_8SivHDrM--26" value="엘레베이터&amp;nbsp;&lt;br&gt;호출버튼을 누른다" style="ellipse;whiteSpace=wrap;html=1;" parent="1" vertex="1">
          <mxGeometry x="963" y="-100" width="120" height="80" as="geometry" />
        </mxCell>
        <mxCell id="GkXkpYNnUR_8SivHDrM--27" value="" style="endArrow=classic;html=1;rounded=0;exitX=0.5;exitY=0.5;exitDx=0;exitDy=0;exitPerimeter=0;entryX=0;entryY=0.5;entryDx=0;entryDy=0;" parent="1" source="GkXkpYNnUR_8SivHDrM--23" target="GkXkpYNnUR_8SivHDrM--26" edge="1">
          <mxGeometry width="50" height="50" relative="1" as="geometry">
            <mxPoint x="1223" y="260" as="sourcePoint" />
            <mxPoint x="1273" y="210" as="targetPoint" />
          </mxGeometry>
        </mxCell>
        <mxCell id="GkXkpYNnUR_8SivHDrM--29" value="" style="endArrow=classic;html=1;rounded=0;entryX=0;entryY=0.5;entryDx=0;entryDy=0;exitX=1;exitY=0.5;exitDx=0;exitDy=0;" parent="1" source="GkXkpYNnUR_8SivHDrM--26" edge="1">
          <mxGeometry width="50" height="50" relative="1" as="geometry">
            <mxPoint x="1083" y="-60" as="sourcePoint" />
            <mxPoint x="1143" y="-60" as="targetPoint" />
          </mxGeometry>
        </mxCell>
        <mxCell id="GkXkpYNnUR_8SivHDrM--35" value="호출버튼을 2초 이내에한 번 더 누른다" style="ellipse;whiteSpace=wrap;html=1;" parent="1" vertex="1">
          <mxGeometry x="1140" y="-100" width="130" height="80" as="geometry" />
        </mxCell>
        <mxCell id="GkXkpYNnUR_8SivHDrM--36" value="엘레베이터 호출이&amp;nbsp;&lt;br&gt;취소된다" style="ellipse;whiteSpace=wrap;html=1;" parent="1" vertex="1">
          <mxGeometry x="1370" y="-102" width="120" height="80" as="geometry" />
        </mxCell>
        <mxCell id="GkXkpYNnUR_8SivHDrM--41" value="" style="endArrow=classic;html=1;rounded=0;entryX=0;entryY=0.5;entryDx=0;entryDy=0;exitX=1;exitY=0.5;exitDx=0;exitDy=0;" parent="1" source="GkXkpYNnUR_8SivHDrM--35" target="GkXkpYNnUR_8SivHDrM--36" edge="1">
          <mxGeometry width="50" height="50" relative="1" as="geometry">
            <mxPoint x="1093" y="-50" as="sourcePoint" />
            <mxPoint x="1153" y="-50" as="targetPoint" />
          </mxGeometry>
        </mxCell>
        <mxCell id="GkXkpYNnUR_8SivHDrM--42" value="&amp;lt;&amp;lt;include&amp;gt;&amp;gt;" style="html=1;verticalAlign=bottom;labelBackgroundColor=none;endArrow=open;endFill=0;dashed=1;rounded=0;entryX=0.5;entryY=0;entryDx=0;entryDy=0;" parent="1" source="GkXkpYNnUR_8SivHDrM--35" target="GkXkpYNnUR_8SivHDrM--43" edge="1">
          <mxGeometry width="160" relative="1" as="geometry">
            <mxPoint x="1164" y="200" as="sourcePoint" />
            <mxPoint x="1204" y="110" as="targetPoint" />
          </mxGeometry>
        </mxCell>
        <mxCell id="GkXkpYNnUR_8SivHDrM--43" value="이동 중에는 취소할 수 없다." style="ellipse;whiteSpace=wrap;html=1;" parent="1" vertex="1">
          <mxGeometry x="1150" y="20" width="130" height="80" as="geometry" />
        </mxCell>
        <mxCell id="eeaVG3Z3IK_SmW4lEbgf-3" value="여러 사용자의 &lt;br&gt;동시호출은 불가능하다." style="ellipse;whiteSpace=wrap;html=1;" vertex="1" parent="1">
          <mxGeometry x="124" y="-250" width="130" height="80" as="geometry" />
        </mxCell>
        <mxCell id="eeaVG3Z3IK_SmW4lEbgf-4" value="&amp;lt;&amp;lt;include&amp;gt;&amp;gt;" style="html=1;verticalAlign=bottom;labelBackgroundColor=none;endArrow=open;endFill=0;dashed=1;rounded=0;exitX=0.5;exitY=0;exitDx=0;exitDy=0;" edge="1" parent="1" target="eeaVG3Z3IK_SmW4lEbgf-3" source="BI4sslR2PnjQIPCocXP0-22">
          <mxGeometry width="160" relative="1" as="geometry">
            <mxPoint x="254.5" y="100" as="sourcePoint" />
            <mxPoint x="68.5" y="550" as="targetPoint" />
            <Array as="points" />
          </mxGeometry>
        </mxCell>
        <mxCell id="eeaVG3Z3IK_SmW4lEbgf-8" value="&amp;lt;&amp;lt;extend&amp;gt;&amp;gt;" style="html=1;verticalAlign=bottom;labelBackgroundColor=none;endArrow=open;endFill=0;dashed=1;rounded=0;exitX=0.701;exitY=0.961;exitDx=0;exitDy=0;entryX=0.322;entryY=-0.039;entryDx=0;entryDy=0;entryPerimeter=0;exitPerimeter=0;" edge="1" parent="1" source="eeaVG3Z3IK_SmW4lEbgf-9" target="BI4sslR2PnjQIPCocXP0-53">
          <mxGeometry x="-0.0128" width="160" relative="1" as="geometry">
            <mxPoint x="328" y="610" as="sourcePoint" />
            <mxPoint x="258" y="480" as="targetPoint" />
            <Array as="points" />
            <mxPoint as="offset" />
          </mxGeometry>
        </mxCell>
        <mxCell id="eeaVG3Z3IK_SmW4lEbgf-9" value="외부 호출 목적지의 &lt;br&gt;진행 방향이 다를 경우 &lt;br&gt;내부&amp;nbsp;선택 증을 &lt;br&gt;우선시한다." style="ellipse;whiteSpace=wrap;html=1;" vertex="1" parent="1">
          <mxGeometry x="250" y="350" width="134" height="80" as="geometry" />
        </mxCell>
        <mxCell id="eeaVG3Z3IK_SmW4lEbgf-12" value="&amp;lt;&amp;lt;extend&amp;gt;&amp;gt;" style="html=1;verticalAlign=bottom;labelBackgroundColor=none;endArrow=open;endFill=0;dashed=1;rounded=0;exitX=0;exitY=1;exitDx=0;exitDy=0;" edge="1" parent="1" source="eeaVG3Z3IK_SmW4lEbgf-13" target="BI4sslR2PnjQIPCocXP0-53">
          <mxGeometry width="160" relative="1" as="geometry">
            <mxPoint x="498" y="610" as="sourcePoint" />
            <mxPoint x="428" y="480" as="targetPoint" />
            <Array as="points" />
          </mxGeometry>
        </mxCell>
        <mxCell id="eeaVG3Z3IK_SmW4lEbgf-13" value="회부 호출 목적지의 진행방향이 같을 경우&lt;br&gt;호출층을 경유한다" style="ellipse;whiteSpace=wrap;html=1;" vertex="1" parent="1">
          <mxGeometry x="410" y="379" width="130" height="80" as="geometry" />
        </mxCell>
        <mxCell id="eeaVG3Z3IK_SmW4lEbgf-14" value="층 선택이&amp;nbsp;&lt;br&gt;취소가 되지 않는다" style="ellipse;whiteSpace=wrap;html=1;" vertex="1" parent="1">
          <mxGeometry x="1590" y="650" width="120" height="80" as="geometry" />
        </mxCell>
        <mxCell id="eeaVG3Z3IK_SmW4lEbgf-15" value="" style="endArrow=classic;html=1;rounded=0;exitX=1.012;exitY=0.676;exitDx=0;exitDy=0;entryX=0;entryY=0.5;entryDx=0;entryDy=0;exitPerimeter=0;" edge="1" parent="1" target="eeaVG3Z3IK_SmW4lEbgf-14" source="eeaVG3Z3IK_SmW4lEbgf-27">
          <mxGeometry width="50" height="50" relative="1" as="geometry">
            <mxPoint x="1480" y="709" as="sourcePoint" />
            <mxPoint x="1600" y="703" as="targetPoint" />
          </mxGeometry>
        </mxCell>
        <mxCell id="eeaVG3Z3IK_SmW4lEbgf-16" value="엘레베이터 내/외부에 사용자가 없다." style="ellipse;whiteSpace=wrap;html=1;" vertex="1" parent="1">
          <mxGeometry x="1600" y="321" width="130" height="80" as="geometry" />
        </mxCell>
        <mxCell id="eeaVG3Z3IK_SmW4lEbgf-17" value="&amp;lt;&amp;lt;include&amp;gt;&amp;gt;" style="html=1;verticalAlign=bottom;labelBackgroundColor=none;endArrow=open;endFill=0;dashed=1;rounded=0;entryX=0.5;entryY=1;entryDx=0;entryDy=0;" edge="1" parent="1" target="eeaVG3Z3IK_SmW4lEbgf-16" source="GkXkpYNnUR_8SivHDrM--13">
          <mxGeometry x="-0.0187" width="160" relative="1" as="geometry">
            <mxPoint x="1690" y="250.99999999999955" as="sourcePoint" />
            <mxPoint x="1485" y="876" as="targetPoint" />
            <Array as="points" />
            <mxPoint as="offset" />
          </mxGeometry>
        </mxCell>
        <mxCell id="eeaVG3Z3IK_SmW4lEbgf-19" value="엘레베이터 내/외부에 사용자가 있다." style="ellipse;whiteSpace=wrap;html=1;" vertex="1" parent="1">
          <mxGeometry x="1540" y="797" width="130" height="80" as="geometry" />
        </mxCell>
        <mxCell id="eeaVG3Z3IK_SmW4lEbgf-20" value="&amp;lt;&amp;lt;include&amp;gt;&amp;gt;" style="html=1;verticalAlign=bottom;labelBackgroundColor=none;endArrow=open;endFill=0;dashed=1;rounded=0;entryX=0.5;entryY=0;entryDx=0;entryDy=0;" edge="1" parent="1" target="eeaVG3Z3IK_SmW4lEbgf-19" source="eeaVG3Z3IK_SmW4lEbgf-14">
          <mxGeometry x="-0.0187" width="160" relative="1" as="geometry">
            <mxPoint x="1634" y="914" as="sourcePoint" />
            <mxPoint x="1625" y="784.9999999999995" as="targetPoint" />
            <Array as="points" />
            <mxPoint as="offset" />
          </mxGeometry>
        </mxCell>
        <mxCell id="eeaVG3Z3IK_SmW4lEbgf-25" value="" style="endArrow=classic;html=1;rounded=0;entryX=0.002;entryY=0.418;entryDx=0;entryDy=0;exitX=1;exitY=0.5;exitDx=0;exitDy=0;entryPerimeter=0;" edge="1" parent="1" source="GkXkpYNnUR_8SivHDrM--7" target="eeaVG3Z3IK_SmW4lEbgf-24">
          <mxGeometry width="50" height="50" relative="1" as="geometry">
            <mxPoint x="1080" y="560" as="sourcePoint" />
            <mxPoint x="1420" y="563" as="targetPoint" />
          </mxGeometry>
        </mxCell>
        <mxCell id="eeaVG3Z3IK_SmW4lEbgf-24" value="목적지 층을 한 번 더 누른다" style="ellipse;whiteSpace=wrap;html=1;" vertex="1" parent="1">
          <mxGeometry x="1175" y="529" width="130" height="80" as="geometry" />
        </mxCell>
        <mxCell id="eeaVG3Z3IK_SmW4lEbgf-26" value="" style="endArrow=classic;html=1;rounded=0;entryX=0;entryY=0.5;entryDx=0;entryDy=0;" edge="1" parent="1" source="eeaVG3Z3IK_SmW4lEbgf-24" target="GkXkpYNnUR_8SivHDrM--12">
          <mxGeometry width="50" height="50" relative="1" as="geometry">
            <mxPoint x="1303" y="558" as="sourcePoint" />
            <mxPoint x="1700" y="489" as="targetPoint" />
          </mxGeometry>
        </mxCell>
        <mxCell id="GkXkpYNnUR_8SivHDrM--12" value="엘레베이터가 운행하기 전이다" style="ellipse;whiteSpace=wrap;html=1;" parent="1" vertex="1">
          <mxGeometry x="1410" y="480" width="130" height="80" as="geometry" />
        </mxCell>
        <mxCell id="eeaVG3Z3IK_SmW4lEbgf-28" value="" style="endArrow=classic;html=1;rounded=0;exitX=1;exitY=1;exitDx=0;exitDy=0;entryX=0.074;entryY=0.235;entryDx=0;entryDy=0;entryPerimeter=0;" edge="1" parent="1" source="eeaVG3Z3IK_SmW4lEbgf-24" target="eeaVG3Z3IK_SmW4lEbgf-27">
          <mxGeometry width="50" height="50" relative="1" as="geometry">
            <mxPoint x="1286" y="597" as="sourcePoint" />
            <mxPoint x="1690" y="690" as="targetPoint" />
          </mxGeometry>
        </mxCell>
        <mxCell id="eeaVG3Z3IK_SmW4lEbgf-27" value="엘레베이터가 운을 시작했이다" style="ellipse;whiteSpace=wrap;html=1;" vertex="1" parent="1">
          <mxGeometry x="1400" y="609" width="130" height="80" as="geometry" />
        </mxCell>
        <mxCell id="eeaVG3Z3IK_SmW4lEbgf-29" value="Actor" style="shape=umlActor;verticalLabelPosition=bottom;verticalAlign=top;html=1;outlineConnect=0;" vertex="1" parent="1">
          <mxGeometry x="901" y="1190" width="30" height="60" as="geometry" />
        </mxCell>
        <mxCell id="eeaVG3Z3IK_SmW4lEbgf-30" value="수동 문개폐" style="text;html=1;align=center;verticalAlign=middle;resizable=0;points=[];autosize=1;strokeColor=none;fillColor=none;" vertex="1" parent="1">
          <mxGeometry x="861" y="1140" width="90" height="30" as="geometry" />
        </mxCell>
        <mxCell id="eeaVG3Z3IK_SmW4lEbgf-31" value="개발자" style="text;html=1;align=center;verticalAlign=middle;resizable=0;points=[];autosize=1;strokeColor=none;fillColor=none;" vertex="1" parent="1">
          <mxGeometry x="871" y="1278" width="60" height="30" as="geometry" />
        </mxCell>
        <mxCell id="eeaVG3Z3IK_SmW4lEbgf-32" value="엘레베이터&amp;nbsp;&lt;br&gt;문이 열린다" style="ellipse;whiteSpace=wrap;html=1;" vertex="1" parent="1">
          <mxGeometry x="981" y="1180" width="120" height="80" as="geometry" />
        </mxCell>
        <mxCell id="eeaVG3Z3IK_SmW4lEbgf-33" value="" style="endArrow=classic;html=1;rounded=0;exitX=0.5;exitY=0.5;exitDx=0;exitDy=0;exitPerimeter=0;entryX=0;entryY=0.5;entryDx=0;entryDy=0;" edge="1" parent="1" source="eeaVG3Z3IK_SmW4lEbgf-29" target="eeaVG3Z3IK_SmW4lEbgf-32">
          <mxGeometry width="50" height="50" relative="1" as="geometry">
            <mxPoint x="921" y="1220" as="sourcePoint" />
            <mxPoint x="1291" y="1490" as="targetPoint" />
          </mxGeometry>
        </mxCell>
        <mxCell id="eeaVG3Z3IK_SmW4lEbgf-34" value="엘레베이터의&lt;br&gt;&amp;nbsp;문이 닫힌다." style="ellipse;whiteSpace=wrap;html=1;" vertex="1" parent="1">
          <mxGeometry x="1251" y="1180" width="119" height="80" as="geometry" />
        </mxCell>
        <mxCell id="eeaVG3Z3IK_SmW4lEbgf-35" value="" style="endArrow=classic;html=1;rounded=0;exitX=1.002;exitY=0.378;exitDx=0;exitDy=0;exitPerimeter=0;entryX=0.041;entryY=0.367;entryDx=0;entryDy=0;entryPerimeter=0;" edge="1" parent="1" source="eeaVG3Z3IK_SmW4lEbgf-32" target="eeaVG3Z3IK_SmW4lEbgf-34">
          <mxGeometry width="50" height="50" relative="1" as="geometry">
            <mxPoint x="1280" y="1220" as="sourcePoint" />
            <mxPoint x="1331.5" y="1200" as="targetPoint" />
          </mxGeometry>
        </mxCell>
        <mxCell id="eeaVG3Z3IK_SmW4lEbgf-38" value="&amp;lt;&amp;lt;include&amp;gt;&amp;gt;" style="html=1;verticalAlign=bottom;labelBackgroundColor=none;endArrow=open;endFill=0;dashed=1;rounded=0;exitX=0.782;exitY=0.935;exitDx=0;exitDy=0;entryX=0.5;entryY=0;entryDx=0;entryDy=0;exitPerimeter=0;" edge="1" parent="1" source="eeaVG3Z3IK_SmW4lEbgf-34" target="eeaVG3Z3IK_SmW4lEbgf-39">
          <mxGeometry width="160" relative="1" as="geometry">
            <mxPoint x="1401" y="1290" as="sourcePoint" />
            <mxPoint x="1501" y="1300" as="targetPoint" />
            <Array as="points" />
          </mxGeometry>
        </mxCell>
        <mxCell id="eeaVG3Z3IK_SmW4lEbgf-39" value="문닫힘 버튼을 통해&lt;br&gt;2초 후에 수동적으로 문을 닫을 수 있다." style="ellipse;whiteSpace=wrap;html=1;" vertex="1" parent="1">
          <mxGeometry x="1321" y="1328" width="130" height="80" as="geometry" />
        </mxCell>
        <mxCell id="eeaVG3Z3IK_SmW4lEbgf-40" value="&amp;lt;&amp;lt;include&amp;gt;&amp;gt;" style="html=1;verticalAlign=bottom;labelBackgroundColor=none;endArrow=open;endFill=0;dashed=1;rounded=0;exitX=0.575;exitY=1.051;exitDx=0;exitDy=0;entryX=0.5;entryY=0;entryDx=0;entryDy=0;exitPerimeter=0;" edge="1" parent="1" target="eeaVG3Z3IK_SmW4lEbgf-41">
          <mxGeometry width="160" relative="1" as="geometry">
            <mxPoint x="1031" y="1260" as="sourcePoint" />
            <mxPoint x="1273" y="1266" as="targetPoint" />
            <Array as="points" />
          </mxGeometry>
        </mxCell>
        <mxCell id="eeaVG3Z3IK_SmW4lEbgf-41" value="문열림 버튼을 통해&lt;br&gt;2초 후에 수동적으로 문을 열어 놓을 수 있다." style="ellipse;whiteSpace=wrap;html=1;" vertex="1" parent="1">
          <mxGeometry x="963" y="1328" width="130" height="80" as="geometry" />
        </mxCell>
        <mxCell id="eeaVG3Z3IK_SmW4lEbgf-48" value="" style="endArrow=classic;html=1;rounded=0;entryX=0;entryY=0.5;entryDx=0;entryDy=0;" edge="1" parent="1" source="BI4sslR2PnjQIPCocXP0-38" target="BI4sslR2PnjQIPCocXP0-76">
          <mxGeometry width="50" height="50" relative="1" as="geometry">
            <mxPoint x="260" y="1660" as="sourcePoint" />
            <mxPoint x="520" y="1660" as="targetPoint" />
            <Array as="points" />
          </mxGeometry>
        </mxCell>
        <mxCell id="BI4sslR2PnjQIPCocXP0-76" value="비상상황&lt;br&gt;버튼을 누른다" style="ellipse;whiteSpace=wrap;html=1;container=1;" parent="1" vertex="1">
          <mxGeometry x="310" y="1620" width="120" height="80" as="geometry">
            <mxRectangle x="319" y="1200" width="120" height="40" as="alternateBounds" />
          </mxGeometry>
        </mxCell>
      </root>
    </mxGraphModel>
  </diagram>
</mxfile>
